<?xml version="1.0" standalone="no"?>
<!DOCTYPE svg PUBLIC "-//W3C//DTD SVG 20010904//EN"
 "http://www.w3.org/TR/2001/REC-SVG-20010904/DTD/svg10.dtd">
<svg version="1.0" xmlns="http://www.w3.org/2000/svg"
 width="912.000000pt" height="912.000000pt" viewBox="0 0 912.000000 912.000000"
 preserveAspectRatio="xMidYMid meet">
<metadata>
Created by potrace 1.14, written by Peter Selinger 2001-2017
</metadata>
<g transform="translate(0.000000,912.000000) scale(0.100000,-0.100000)"
fill="#000000" stroke="none">
<path d="M4195 8962 c-1 -2 -25 -5 -52 -8 -102 -10 -130 -13 -187 -19 -33 -4
-69 -9 -80 -11 -12 -2 -59 -11 -106 -19 -126 -22 -135 -23 -135 -25 0 -1 -9
-3 -20 -5 -11 -1 -31 -5 -45 -8 -14 -3 -34 -8 -46 -11 -11 -2 -51 -12 -88 -21
-37 -9 -72 -18 -79 -19 -7 -1 -17 -5 -23 -8 -6 -4 -23 -9 -38 -12 -16 -3 -64
-17 -107 -31 -43 -15 -82 -27 -86 -27 -22 -2 -298 -112 -401 -159 -46 -22 -87
-39 -93 -39 -5 0 -9 -4 -9 -10 0 -5 -4 -9 -8 -7 -8 2 -142 -63 -152 -74 -3 -3
-20 -11 -37 -18 -18 -8 -33 -17 -33 -22 0 -5 -9 -9 -20 -9 -11 0 -20 -4 -20
-10 0 -5 -4 -10 -9 -10 -5 0 -45 -23 -88 -50 -43 -28 -86 -53 -95 -56 -10 -4
-18 -10 -18 -15 0 -5 -6 -9 -14 -9 -8 0 -21 -6 -28 -13 -7 -7 -35 -28 -63 -47
-64 -43 -309 -230 -355 -270 -19 -17 -60 -52 -90 -78 -69 -59 -338 -328 -407
-407 -48 -56 -61 -71 -105 -123 -9 -11 -49 -65 -90 -119 -40 -54 -75 -100 -78
-103 -4 -3 -16 -22 -29 -43 -13 -21 -28 -43 -35 -50 -7 -6 -29 -41 -51 -77
-21 -36 -41 -67 -44 -70 -3 -3 -12 -16 -20 -30 -8 -14 -39 -68 -69 -120 -45
-79 -174 -333 -178 -350 -1 -6 -30 -75 -44 -105 -13 -27 -72 -177 -75 -190 -1
-5 -5 -17 -8 -25 -86 -216 -192 -661 -221 -931 -4 -31 -8 -66 -11 -78 -27
-140 -27 -838 0 -981 2 -14 7 -45 9 -70 12 -107 19 -153 47 -295 28 -139 46
-212 85 -355 22 -77 105 -323 114 -335 4 -5 13 -27 20 -48 7 -22 28 -73 48
-115 20 -43 37 -79 37 -82 1 -3 26 -54 56 -114 l55 -109 302 299 c166 165 672
667 1124 1116 453 449 942 934 1086 1077 l264 262 116 -122 c65 -68 142 -149
172 -180 50 -53 236 -247 395 -414 33 -34 125 -131 205 -215 80 -83 179 -188
221 -232 l76 -79 404 401 c222 220 732 726 1133 1123 787 780 844 838 846 850
1 9 -390 207 -408 207 -6 0 -12 3 -14 8 -1 4 -25 17 -52 30 -26 13 -46 26 -42
29 6 6 613 210 646 217 8 2 22 6 30 9 8 4 58 20 110 37 52 17 102 34 110 37 8
3 20 7 25 8 6 1 91 29 190 62 99 33 258 86 354 117 95 32 179 60 187 63 15 5
20 33 6 33 -5 0 -23 19 -40 43 -17 24 -43 57 -59 74 -15 16 -46 51 -68 78 -61
72 -300 312 -390 390 -44 39 -82 72 -85 75 -62 62 -374 285 -545 390 -65 40
-91 55 -227 128 -29 16 -64 35 -78 43 -14 7 -27 14 -30 14 -3 1 -41 18 -85 39
-335 160 -764 301 -1070 352 -16 2 -50 9 -75 14 -53 11 -114 21 -155 26 -16 2
-48 6 -70 9 -59 8 -167 17 -190 17 -10 -1 -24 3 -30 8 -6 5 -17 5 -24 1 -7 -5
-29 -5 -48 0 -34 7 -590 9 -598 1z"/>
<path d="M8110 7147 c0 -2 -210 -630 -225 -675 -2 -7 -4 -13 -4 -15 0 -1 -14
-40 -31 -87 -17 -47 -33 -92 -35 -100 -2 -8 -42 -130 -90 -270 -48 -140 -87
-259 -89 -265 -1 -5 -11 -35 -21 -65 -11 -30 -20 -57 -20 -60 -4 -23 -38 -110
-43 -110 -4 0 -15 20 -26 43 -10 23 -25 52 -32 64 -8 13 -14 24 -14 25 1 2
-31 64 -69 138 -39 74 -83 161 -98 193 -16 31 -32 57 -36 57 -4 0 -126 -117
-269 -260 -144 -143 -262 -260 -263 -260 -1 0 -2065 -2043 -2129 -2108 l-52
-52 -350 345 c-192 190 -468 463 -613 607 l-263 261 -38 -39 c-21 -21 -313
-311 -650 -644 -336 -333 -795 -786 -1018 -1007 -223 -222 -409 -403 -413
-403 -4 0 -11 -9 -14 -20 -3 -11 -9 -20 -13 -20 -15 0 -387 -380 -384 -392 4
-17 112 -175 129 -189 7 -6 13 -17 13 -24 0 -8 3 -15 8 -17 4 -2 36 -39 72
-83 241 -299 569 -612 871 -830 30 -22 56 -42 59 -45 10 -10 69 -50 75 -50 3
0 5 12 4 28 0 15 0 431 0 924 1 584 5 899 11 903 6 4 8 10 5 15 -3 4 96 109
220 232 125 122 344 340 488 483 145 143 281 274 302 291 l40 32 1 -1697 c0
-1578 1 -1698 17 -1728 10 -18 27 -38 39 -44 31 -17 149 -49 180 -49 l26 0 1
1843 c0 1013 0 1852 0 1865 l1 23 23 -23 c500 -489 1003 -991 1020 -1018 l22
-35 2 -1380 c1 -759 2 -1395 2 -1412 l1 -33 128 0 129 0 1 1400 c2 1249 4
1404 18 1439 11 29 142 165 509 529 271 270 502 495 512 500 17 10 18 -51 18
-1850 0 -1023 3 -1862 7 -1864 4 -3 27 1 50 7 54 16 46 14 93 23 48 9 81 34
96 72 9 22 11 527 11 1944 -1 1837 0 1917 17 1956 10 22 30 50 45 61 14 12 26
26 26 32 0 6 4 11 9 11 4 0 163 153 352 340 189 187 374 370 412 406 37 37 67
71 67 77 0 6 2 8 5 5 3 -3 32 21 65 53 32 33 61 59 64 59 2 0 4 -988 4 -2196
0 -1208 2 -2198 5 -2200 3 -4 165 104 194 130 32 29 43 36 52 36 5 0 11 3 13
8 2 4 26 25 53 46 28 22 55 44 60 50 6 6 31 28 57 49 99 79 330 308 438 433
45 52 184 228 220 277 19 27 43 57 52 67 9 10 14 20 12 23 -2 2 6 15 19 29 13
14 27 32 31 39 3 8 20 34 36 59 36 55 106 170 137 225 40 71 190 370 198 395
4 14 18 48 31 75 24 54 75 183 79 200 1 5 7 21 13 35 16 38 85 261 85 276 0 8
5 14 10 14 6 0 8 3 5 6 -4 3 3 38 14 77 11 40 22 82 23 94 2 11 7 32 11 45 4
12 9 31 10 41 1 9 2 18 3 20 2 1 5 13 7 27 14 78 34 189 39 215 8 40 11 67 19
145 4 36 9 76 12 90 27 156 26 753 -2 970 -3 19 -7 51 -9 70 -9 78 -15 120
-31 205 -9 50 -18 99 -19 110 -1 11 -6 28 -10 37 -4 9 -4 22 0 28 3 5 2 10 -4
10 -5 0 -9 8 -9 18 0 9 -9 53 -21 97 -22 79 -40 146 -46 175 -4 16 -71 214
-82 240 -3 8 -7 17 -7 20 -2 8 -47 121 -61 155 -8 17 -22 50 -33 75 -39 90
-96 205 -104 208 -4 2 -8 10 -8 17 0 18 -126 234 -203 350 -54 80 -143 201
-216 292 -22 27 -41 42 -41 30z"/>
</g>
</svg>
